<svg width="48" height="48" viewBox="0 0 48 48" fill="none" xmlns="http://www.w3.org/2000/svg">
<rect width="48" height="48" rx="24" fill="#E9EBF5"/>
<path d="M23.9418 26.0415C26.0332 26.0415 27.7282 24.279 27.7282 22.104V16.854C27.7282 14.679 26.0332 12.9165 23.9418 12.9165C21.8504 12.9165 20.1554 14.679 20.1554 16.854V22.104C20.1554 24.279 21.8504 26.0415 23.9418 26.0415ZM31.2918 22.0571C31.2918 21.954 31.2116 21.8696 31.1136 21.8696H29.7773C29.6793 21.8696 29.5991 21.954 29.5991 22.0571C29.5991 25.3454 27.0667 28.0103 23.9418 28.0103C20.8169 28.0103 18.2845 25.3454 18.2845 22.0571C18.2845 21.954 18.2043 21.8696 18.1063 21.8696H16.77C16.672 21.8696 16.5918 21.954 16.5918 22.0571C16.5918 26.011 19.4115 29.2735 23.0509 29.7353V32.1353H19.8147C19.5095 32.1353 19.2645 32.4704 19.2645 32.8853V33.729C19.2645 33.8321 19.3269 33.9165 19.4026 33.9165H28.481C28.5567 33.9165 28.6191 33.8321 28.6191 33.729V32.8853C28.6191 32.4704 28.3741 32.1353 28.0689 32.1353H24.7436V29.747C28.4253 29.3251 31.2918 26.0438 31.2918 22.0571Z" fill="url(#paint0_linear_1807_13805)"/>
<defs>
<linearGradient id="paint0_linear_1807_13805" x1="23.9418" y1="12.9165" x2="23.9418" y2="33.9165" gradientUnits="userSpaceOnUse">
<stop stop-color="#7074CC"/>
<stop offset="1" stop-color="#203596"/>
</linearGradient>
</defs>
</svg>
