<svg width="48" height="48" viewBox="0 0 48 48" fill="none" xmlns="http://www.w3.org/2000/svg">
<rect width="48" height="48" rx="24" fill="#E9EBF5"/>
<path d="M14.6602 30.0748V32.75C14.6602 32.9047 14.7216 33.0531 14.831 33.1625C14.9404 33.2719 15.0888 33.3333 15.2435 33.3333H17.9245C18.0789 33.3333 18.227 33.272 18.3363 33.163L29.359 22.1403L25.859 18.6403L14.8317 29.663C14.7222 29.7721 14.6605 29.9202 14.6602 30.0748ZM27.3033 17.1948L30.8033 20.6948L32.5067 18.9915C32.7254 18.7727 32.8482 18.476 32.8482 18.1667C32.8482 17.8573 32.7254 17.5606 32.5067 17.3418L30.6575 15.4915C30.4387 15.2728 30.142 15.1499 29.8327 15.1499C29.5233 15.1499 29.2266 15.2728 29.0078 15.4915L27.3033 17.1948Z" fill="url(#paint0_linear_1807_13848)"/>
<defs>
<linearGradient id="paint0_linear_1807_13848" x1="23.7542" y1="15.1499" x2="23.7542" y2="33.3333" gradientUnits="userSpaceOnUse">
<stop stop-color="#7074CC"/>
<stop offset="1" stop-color="#203596"/>
</linearGradient>
</defs>
</svg>
